# xmcd CD database file
# Copyright (C) 1993-1996 Ti Kan
#
# Track frame offsets:
#	150
#	12577
#	25707
#	42982
#	60270
#	73492
#	104372
#	123475
#	133615
#	146052
#	159795
#	172340
#	185492
#	202832
#	220050
#	233215
#	256112
#	274630
#	284710
#	297115
#
# Disc length: 4139 seconds
#
# Revision: 1
# Processed by: cddbd v1.4b41PL1 Copyright (c) Steve Scherf et al.
# Submitted via: CDValet v3.01 - Copyright (c) 1997 Greg Leichner
#
DISCID=30102914
DTITLE=Ted White - Lost and Found
DYEAR=1900
DGENRE=
TTITLE0=Jesus Seeks You
TTITLE1=Rodeo Angel
TTITLE2=Shadrach
TTITLE3=Jesus is a Cowboy
TTITLE4=Blasted from the Saddle
TTITLE5=Lord Protect Me
TTITLE6=Tornado Saloon
TTITLE7=Thunder on the Highway
TTITLE8=Lose to Win
TTITLE9=On the Run
TTITLE10=Jesus Seeks You (Sound Track Only)
TTITLE11=Rodeo Angel (Sound Track Only)
TTITLE12=Shadrach (Sound Track Only)
TTITLE13=Jesus is a Cowboy (Sound Track Only)
TTITLE14=Blasted from the Saddle (Sound Track Only)
TTITLE15=Lord Protect Me (Sound Track Only)
TTITLE16=Tornado Saloon (Sound Track Only)
TTITLE17=Thunder on the Highway (Sound Track Only)
TTITLE18=Lose to Win (Sound Track Only)
TTITLE19=On the Run (Sound Track Only)
EXTD=
EXTT0=
EXTT1=
EXTT2=
EXTT3=
EXTT4=
EXTT5=
EXTT6=
EXTT7=
EXTT8=
EXTT9=
EXTT10=
EXTT11=
EXTT12=
EXTT13=
EXTT14=
EXTT15=
EXTT16=
EXTT17=
EXTT18=
EXTT19=
PLAYORDER=
